<svg xmlns="http://www.w3.org/2000/svg" version="1.1" xmlns:xlink="http://www.w3.org/1999/xlink" xmlns:svgjs="http://svgjs.dev/svgjs" width="200" height="70" viewBox="0 0 1000 434"><g transform="matrix(1,0,0,1,0.1066666666666265,0.618780124406868)"><svg viewBox="0 0 375 163" data-background-color="#ffffff" preserveAspectRatio="xMidYMid meet" height="434" width="1000" xmlns="http://www.w3.org/2000/svg" xmlns:xlink="http://www.w3.org/1999/xlink"><g id="tight-bounds" transform="matrix(1,0,0,1,-0.03976036071776434,-0.23239898681640625)"><svg viewBox="0 0 375.07952880859375 163.4647979736328" height="163.4647979736328" width="375.07952880859375"><g><svg></svg></g><g><svg viewBox="0 0 375.07952880859375 163.4647979736328" height="163.4647979736328" width="375.07952880859375"><g transform="matrix(1,0,0,1,-10.220239639282227,-46.59861755371094)"><path xmlns="http://www.w3.org/2000/svg" d="M10.22 200.601v-154.002h375.08v154.002h-13.736l0-5.198h8.538v-143.606h-364.684v143.606h14.151l0 5.198z" fill="#0074d9" fill-rule="nonzero" stroke="none" stroke-width="1" stroke-linecap="butt" stroke-linejoin="miter" stroke-miterlimit="10" stroke-dasharray="" stroke-dashoffset="0" font-family="none" font-weight="none" font-size="none" text-anchor="none" style="mix-blend-mode: normal" data-fill-palette-color="tertiary"></path><g><path xmlns="http://www.w3.org/2000/svg" d="M56.602 194.613l-3.065-7.7h2.118l2.343 6.155 2.367-6.155h2.118l-3.065 7.7 3.04 7.302 5.981-15.102h2.442l-7.401 17.693h-1.944l-3.513-8.348-3.539 8.348h-1.944l-7.376-17.693h2.417l6.006 15.102zM95.906 204.756v0c-0.98 0-1.872-0.179-2.677-0.539-0.807-0.356-1.505-0.846-2.093-1.47-0.591-0.621-1.048-1.339-1.37-2.153-0.326-0.814-0.488-1.678-0.489-2.592v0c0-1.229 0.282-2.351 0.847-3.364 0.565-1.013 1.351-1.827 2.358-2.442 1.003-0.615 2.153-0.922 3.449-0.922v0c1.312 0 2.455 0.311 3.429 0.932 0.97 0.625 1.726 1.439 2.267 2.442 0.538 1.007 0.807 2.092 0.808 3.255v0c0 0.166-0.003 0.327-0.01 0.483-0.01 0.159-0.023 0.281-0.04 0.364v0h-10.79c0.066 0.847 0.304 1.598 0.712 2.253 0.405 0.658 0.932 1.173 1.58 1.545 0.648 0.375 1.346 0.563 2.094 0.563v0c0.797 0 1.55-0.199 2.257-0.598 0.704-0.399 1.19-0.922 1.456-1.57v0l1.894 0.523c-0.282 0.631-0.701 1.196-1.256 1.695-0.558 0.498-1.214 0.889-1.969 1.171-0.758 0.282-1.577 0.424-2.457 0.424zM91.52 197.23v0h8.871c-0.066-0.847-0.307-1.595-0.722-2.243-0.415-0.648-0.947-1.155-1.595-1.52-0.648-0.365-1.362-0.548-2.143-0.548v0c-0.764 0-1.47 0.183-2.118 0.548-0.648 0.365-1.175 0.872-1.58 1.52-0.409 0.648-0.646 1.396-0.713 2.243zM130.549 204.756v0c-1.013 0-1.935-0.249-2.766-0.748-0.831-0.498-1.487-1.146-1.968-1.944v0 2.442h-1.944v-18.191h2.193v7.775c0.548-0.847 1.221-1.528 2.018-2.044 0.797-0.515 1.728-0.773 2.791-0.772v0c0.897 0 1.703 0.186 2.418 0.558 0.714 0.375 1.326 0.882 1.834 1.52 0.505 0.641 0.895 1.364 1.171 2.168 0.272 0.807 0.409 1.651 0.409 2.532v0c0 0.914-0.153 1.773-0.459 2.577-0.309 0.807-0.746 1.522-1.311 2.143-0.565 0.625-1.216 1.111-1.953 1.46-0.741 0.349-1.552 0.523-2.433 0.524zM130.001 202.862v0c0.648 0 1.246-0.133 1.794-0.399 0.548-0.266 1.022-0.623 1.421-1.072 0.399-0.449 0.706-0.964 0.922-1.545 0.216-0.581 0.324-1.18 0.324-1.794v0c0-0.847-0.178-1.645-0.533-2.392-0.359-0.748-0.857-1.351-1.496-1.809-0.641-0.455-1.386-0.683-2.232-0.683v0c-0.615 0-1.188 0.141-1.72 0.423-0.532 0.282-1 0.651-1.405 1.107-0.409 0.459-0.746 0.962-1.012 1.51v0 3.763c0.083 0.415 0.258 0.797 0.523 1.146 0.266 0.349 0.59 0.651 0.972 0.907 0.382 0.259 0.786 0.464 1.211 0.613 0.422 0.15 0.832 0.224 1.231 0.225zM190.173 204.506h-6.131v-17.693h6.131c1.894 0 3.475 0.394 4.744 1.181 1.273 0.791 2.225 1.854 2.856 3.19 0.631 1.339 0.947 2.823 0.947 4.451v0c0 1.794-0.349 3.356-1.046 4.685-0.698 1.329-1.686 2.359-2.966 3.09-1.279 0.731-2.791 1.096-4.535 1.096zM196.453 195.635v0c0-1.329-0.246-2.509-0.738-3.539-0.488-1.03-1.198-1.836-2.128-2.417-0.93-0.581-2.068-0.872-3.414-0.872v0h-3.888v13.706h3.888c1.362 0 2.509-0.304 3.439-0.912 0.93-0.605 1.636-1.427 2.118-2.467 0.482-1.037 0.723-2.203 0.723-3.499zM226.287 204.756v0c-0.98 0-1.874-0.179-2.682-0.539-0.804-0.356-1.502-0.846-2.093-1.47-0.588-0.621-1.045-1.339-1.371-2.153-0.322-0.814-0.483-1.678-0.483-2.592v0c0-1.229 0.282-2.351 0.847-3.364 0.565-1.013 1.349-1.827 2.353-2.442 1.007-0.615 2.158-0.922 3.453-0.922v0c1.312 0 2.454 0.311 3.424 0.932 0.974 0.625 1.729 1.439 2.268 2.442 0.542 1.007 0.812 2.092 0.813 3.255v0c0 0.166-0.005 0.327-0.015 0.483-0.007 0.159-0.018 0.281-0.035 0.364v0h-10.791c0.066 0.847 0.302 1.598 0.708 2.253 0.409 0.658 0.937 1.173 1.585 1.545 0.648 0.375 1.346 0.563 2.093 0.563v0c0.797 0 1.548-0.199 2.253-0.598 0.708-0.399 1.194-0.922 1.46-1.57v0l1.894 0.523c-0.282 0.631-0.703 1.196-1.261 1.695-0.555 0.498-1.211 0.889-1.968 1.171-0.754 0.282-1.572 0.424-2.452 0.424zM221.901 197.23v0h8.871c-0.066-0.847-0.307-1.595-0.723-2.243-0.415-0.648-0.947-1.155-1.594-1.52-0.648-0.365-1.362-0.548-2.144-0.548v0c-0.764 0-1.47 0.183-2.118 0.548-0.648 0.365-1.176 0.872-1.585 1.52-0.405 0.648-0.641 1.396-0.707 2.243zM258.712 204.756v0c-1.08 0-2.093-0.179-3.04-0.539-0.947-0.356-1.761-0.89-2.442-1.605v0l0.847-1.545c0.748 0.698 1.495 1.196 2.243 1.496 0.748 0.299 1.512 0.449 2.293 0.448v0c0.897 0 1.628-0.171 2.193-0.513 0.565-0.339 0.847-0.841 0.847-1.505v0c0-0.482-0.145-0.839-0.434-1.072-0.292-0.233-0.704-0.429-1.236-0.588-0.532-0.156-1.163-0.334-1.894-0.533v0c-0.897-0.266-1.653-0.548-2.267-0.848-0.615-0.299-1.08-0.673-1.396-1.121-0.316-0.449-0.473-1.013-0.473-1.695v0c0-0.831 0.216-1.533 0.648-2.108 0.432-0.572 1.027-1.007 1.784-1.306 0.754-0.299 1.613-0.449 2.577-0.448v0c0.964 0 1.836 0.15 2.616 0.448 0.781 0.299 1.454 0.739 2.019 1.321v0l-0.997 1.52c-0.515-0.532-1.08-0.927-1.695-1.186-0.615-0.256-1.304-0.384-2.068-0.384v0c-0.449 0-0.889 0.053-1.321 0.16-0.432 0.11-0.789 0.301-1.071 0.573-0.282 0.276-0.424 0.663-0.424 1.161v0c0 0.415 0.113 0.744 0.339 0.987 0.223 0.239 0.555 0.442 0.997 0.608 0.439 0.166 0.974 0.349 1.605 0.548v0c0.98 0.282 1.832 0.565 2.556 0.848 0.721 0.282 1.281 0.648 1.68 1.096 0.399 0.449 0.598 1.072 0.598 1.869v0c0 1.229-0.465 2.188-1.396 2.876-0.93 0.691-2.16 1.037-3.688 1.037zM287.599 204.506h-2.193v-13.008h2.193zM287.599 189.056h-2.193v-2.741h2.193zM315.32 204.656v0c-0.88 0-1.691-0.179-2.432-0.538-0.738-0.356-1.372-0.846-1.904-1.471-0.532-0.621-0.944-1.331-1.236-2.128-0.289-0.797-0.434-1.628-0.433-2.492v0c0-0.914 0.145-1.778 0.433-2.592 0.292-0.814 0.708-1.533 1.246-2.158 0.542-0.621 1.178-1.111 1.909-1.47 0.731-0.356 1.545-0.533 2.442-0.533v0c1.08 0 2.022 0.266 2.826 0.797 0.807 0.532 1.485 1.204 2.034 2.019v0-2.592h1.943v12.859c0 1.229-0.296 2.268-0.887 3.115-0.588 0.847-1.386 1.492-2.392 1.934-1.003 0.439-2.12 0.658-3.349 0.657v0c-1.462 0-2.658-0.258-3.589-0.772-0.93-0.515-1.703-1.213-2.317-2.093v0l1.271-1.122c0.515 0.764 1.183 1.337 2.003 1.72 0.824 0.382 1.701 0.573 2.632 0.573v0c0.797 0 1.532-0.145 2.203-0.434 0.674-0.292 1.214-0.738 1.619-1.335 0.409-0.598 0.613-1.346 0.613-2.243v0-2.293c-0.482 0.797-1.143 1.429-1.983 1.894-0.837 0.465-1.721 0.698-2.652 0.698zM315.993 202.862v0c0.465 0 0.914-0.083 1.346-0.25 0.432-0.166 0.831-0.387 1.196-0.662 0.365-0.272 0.673-0.583 0.922-0.932 0.249-0.349 0.415-0.706 0.498-1.072v0-3.738c-0.233-0.598-0.565-1.126-0.996-1.585-0.432-0.455-0.922-0.812-1.471-1.071-0.548-0.256-1.113-0.384-1.694-0.384v0c-0.665 0-1.259 0.141-1.784 0.423-0.522 0.282-0.965 0.66-1.331 1.132-0.365 0.475-0.648 1.003-0.847 1.585-0.199 0.581-0.299 1.171-0.3 1.769v0c0 0.648 0.116 1.259 0.349 1.834 0.233 0.572 0.548 1.082 0.947 1.53 0.399 0.449 0.872 0.797 1.421 1.047 0.548 0.249 1.13 0.374 1.744 0.374zM355.97 196.731v7.775h-2.193v-7.276c0-1.379-0.213-2.389-0.638-3.031-0.422-0.638-1.065-0.957-1.929-0.956v0c-0.598 0-1.193 0.15-1.784 0.448-0.588 0.299-1.111 0.701-1.57 1.206-0.455 0.508-0.782 1.095-0.982 1.76v0 7.849h-2.193v-13.008h1.993v2.791c0.349-0.615 0.797-1.146 1.346-1.595 0.548-0.449 1.171-0.797 1.869-1.046 0.698-0.249 1.429-0.374 2.193-0.374v0c0.748 0 1.374 0.136 1.879 0.409 0.508 0.276 0.907 0.658 1.196 1.146 0.292 0.492 0.5 1.07 0.623 1.734 0.126 0.665 0.189 1.387 0.19 2.168z" fill="#233565" fill-rule="nonzero" stroke="none" stroke-width="1" stroke-linecap="butt" stroke-linejoin="miter" stroke-miterlimit="10" stroke-dasharray="" stroke-dashoffset="0" font-family="none" font-weight="none" font-size="none" text-anchor="none" style="mix-blend-mode: normal" data-fill-palette-color="secondary"></path></g></g><g transform="matrix(1,0,0,1,29.331764404296877,52.911243061660485)"><svg viewBox="0 0 316.416 57.64231185031185" height="57.64231185031185" width="316.416"><g><svg viewBox="0 0 316.416 57.64231185031185" height="57.64231185031185" width="316.416"><g><svg viewBox="0 0 316.416 57.64231185031185" height="57.64231185031185" width="316.416"><g><svg viewBox="0 0 316.416 57.64231185031185" height="57.64231185031185" width="316.416"><g id="textblocktransform"><svg viewBox="0 0 316.416 57.64231185031185" height="57.64231185031185" width="316.416" id="textblock"><g><svg viewBox="0 0 316.416 57.64231185031185" height="57.64231185031185" width="316.416"><g transform="matrix(1,0,0,1,0,0)"><svg width="316.416" viewBox="2.490000009536743 -33.84000015258789 187.8699951171875 34.22999954223633" height="57.64231185031185" data-palette-color="#0074d9"><path d="M25.2-6.69L23.29 0.24Q21.83 0.05 21 0.02 20.17 0 19.34 0L19.34 0 2.59 0 2.49-1.66 5.42-2.34Q5.52-2.59 5.54-3.42 5.57-4.25 5.59-5.76 5.62-7.28 5.62-9.42L5.62-9.42 5.62-19.19Q5.62-21.39 5.59-22.92 5.57-24.46 5.54-25.29 5.52-26.12 5.42-26.32L5.42-26.32 2.49-27 2.59-28.66 18.46-28.66Q19.09-28.66 19.65-28.66 20.21-28.66 20.92-28.71 21.63-28.76 22.66-28.86L22.66-28.86 23.54-22.61 21.53-22.31 19.92-26.37Q19.63-26.42 19.14-26.44 18.65-26.46 18.12-26.46L18.12-26.46 12.06-26.46Q11.13-26.46 10.47-26.44 9.81-26.42 9.13-26.32L9.13-26.32Q9.13-26.12 9.11-25.22 9.08-24.32 9.06-23.14 9.03-21.97 9.03-20.95L9.03-20.95 9.03-6.93Q9.03-6.1 9.06-5.18 9.08-4.25 9.11-3.49 9.13-2.73 9.13-2.49L9.13-2.49Q9.77-2.39 10.45-2.34 11.13-2.29 11.91-2.29L11.91-2.29 17.24-2.29Q18.26-2.29 18.95-2.32 19.63-2.34 20.07-2.39 20.51-2.44 20.7-2.49L20.7-2.49 23.24-7.08 25.2-6.69ZM20.02-10.06L18.12-10.06 17.53-13.43Q17.24-13.53 16.7-13.57 16.16-13.62 15.38-13.62L15.38-13.62 11.38-13.62Q10.79-13.62 10.03-13.57 9.28-13.53 8.4-13.48L8.4-13.48 8.4-15.97Q9.28-15.92 10.03-15.89 10.79-15.87 11.38-15.87L11.38-15.87 15.38-15.87Q16.16-15.87 16.7-15.89 17.24-15.92 17.53-16.02L17.53-16.02 18.12-19.48 20.02-19.48 20.02-10.06ZM38.03 0L28.42 0 28.32-1.66 31.49-2.29Q31.59-2.88 31.61-3.91 31.64-4.93 31.66-6.81 31.69-8.69 31.69-11.67L31.69-11.67 31.69-17.77Q31.69-19.63 31.66-21.66 31.64-23.68 31.61-25.49 31.59-27.29 31.56-28.54 31.54-29.79 31.54-30.08L31.54-30.08 27.93-30.57 27.83-31.93 34.18-33.84 34.96-33.2Q34.91-31.1 34.86-29.05 34.81-27 34.79-24.49 34.76-21.97 34.76-18.46L34.76-18.46 34.71-10.4Q34.71-7.67 34.81-5.37 34.91-3.08 34.96-2.29L34.96-2.29 38.13-1.66 38.03 0ZM50.87 0L41.11 0 41.01-1.66 44.28-2.29Q44.33-2.49 44.36-2.93 44.38-3.37 44.4-4.47 44.43-5.57 44.43-7.62L44.43-7.62 44.48-10.69Q44.48-12.94 44.38-14.75 44.28-16.55 44.14-17.33L44.14-17.33 40.86-18.02 40.86-19.48 47.21-21.14 47.75-20.56Q47.65-19.04 47.58-17.6 47.5-16.16 47.5-14.21L47.5-14.21 47.5-8.06Q47.5-5.66 47.58-4.17 47.65-2.69 47.7-2.29L47.7-2.29 50.97-1.66 50.87 0ZM45.99-27.1L45.99-27.1Q44.92-27.1 44.09-27.83 43.26-28.56 43.26-29.69L43.26-29.69Q43.26-30.76 44.09-31.52 44.92-32.28 45.99-32.28L45.99-32.28Q47.07-32.28 47.85-31.52 48.63-30.76 48.63-29.69L48.63-29.69Q48.63-28.56 47.85-27.83 47.07-27.1 45.99-27.1ZM61.91 0.39L61.91 0.39Q60.15 0.39 58.42-0.02 56.68-0.44 55.36-1.12L55.36-1.12 55.12-6.2 57.32-6.2 58.29-2.69Q59.9-1.46 62.2-1.46L62.2-1.46Q63.91-1.46 65.03-2.32 66.15-3.17 66.15-4.64L66.15-4.64Q66.15-6.01 65.18-6.98 64.2-7.96 61.52-9.13L61.52-9.13Q58.1-10.64 56.71-12.04 55.31-13.43 55.31-15.53L55.31-15.53Q55.31-17.19 56.29-18.48 57.27-19.78 59.03-20.51 60.78-21.24 63.08-21.24L63.08-21.24Q64.4-21.24 65.76-21.04 67.13-20.85 68.06-20.46L68.06-20.46 68.6-15.53 66.55-15.53 65.32-18.8Q64.84-19.09 64.15-19.26 63.47-19.43 62.69-19.43L62.69-19.43Q60.88-19.43 59.81-18.58 58.73-17.72 58.73-16.41L58.73-16.41Q58.73-14.89 59.86-13.96 60.98-13.04 63.81-11.62L63.81-11.62Q67.03-10.11 68.3-8.72 69.57-7.32 69.57-5.37L69.57-5.37Q69.57-2.88 67.4-1.25 65.23 0.39 61.91 0.39ZM83.73 0.39L83.73 0.39Q81.04 0.39 78.8-0.83 76.55-2.05 75.23-4.39 73.92-6.74 73.92-10.01L73.92-10.01Q73.92-13.53 75.28-16.04 76.65-18.55 78.9-19.92 81.14-21.29 83.68-21.24L83.68-21.24Q87.34-21.19 89.44-18.8 91.54-16.41 91.54-11.72L91.54-11.72 91.54-10.94 76.36-10.94 76.36-12.94 88.81-12.94 88.32-12.45 88.32-13.33Q88.32-16.26 87-17.85 85.68-19.43 83.29-19.43L83.29-19.43Q81.87-19.43 80.53-18.58 79.19-17.72 78.33-16.02 77.48-14.31 77.48-11.72L77.48-11.72 77.48-11.23Q77.48-7.08 79.51-4.79 81.53-2.49 84.66-2.49L84.66-2.49Q86.46-2.49 87.81-3.17 89.15-3.86 90.42-5.42L90.42-5.42 91.59-4.39Q90.22-1.95 88.22-0.78 86.22 0.39 83.73 0.39ZM105.11-1.66L108.09-2.34Q108.19-2.73 108.29-4.61 108.38-6.49 108.38-9.42L108.38-9.42 108.38-19.19Q108.38-22.41 108.29-24.32 108.19-26.22 108.09-26.51L108.09-26.51 105.11-26.9 105.26-28.66 116.24-28.66Q120.83-28.66 123.32-26.88 125.82-25.1 125.82-21.78L125.82-21.78Q125.82-19.09 123.74-17.24 121.66-15.38 118.44-15.09L118.44-15.09 117.61-15.48Q122.35-15.33 124.81-13.45 127.28-11.57 127.28-8.25L127.28-8.25Q127.28-4.49 124.01-2.25 120.74 0 115.27 0L115.27 0 105.26 0 105.11-1.66ZM111.8-20.21L111.8-8.64Q111.8-6.45 111.85-4.64 111.9-2.83 111.95-2.44L111.95-2.44Q112.58-2.29 113.71-2.17 114.83-2.05 115.46-2.05L115.46-2.05Q119.57-2.05 121.57-3.47 123.57-4.88 123.57-7.76L123.57-7.76Q123.57-10.69 121.47-12.18 119.37-13.67 115.22-13.67L115.22-13.67Q113.02-13.67 112.31-13.67 111.61-13.67 111.12-13.57L111.12-13.57 111.12-15.92Q112.14-15.87 113.02-15.82 113.9-15.77 114.98-15.77L114.98-15.77Q118.39-15.77 120.25-17.24 122.1-18.7 122.1-21.34L122.1-21.34Q122.1-23.97 120.4-25.34 118.69-26.71 115.56-26.71L115.56-26.71 111.9-26.71Q111.85-26.32 111.83-24.41 111.8-22.51 111.8-20.21L111.8-20.21ZM139.39 0.39L139.39 0.39Q137.53 0.39 136.04-0.34 134.55-1.07 133.67-2.25 132.8-3.42 132.8-4.74L132.8-4.74Q132.8-6.35 133.87-7.4 134.94-8.45 137.43-9.28L137.43-9.28 144.81-11.82 144.81-14.5Q144.81-15.82 144.05-16.85 143.29-17.87 142.02-18.46 140.75-19.04 139.14-19.04L139.14-19.04Q137.82-19.04 137.36-18.51 136.9-17.97 136.8-16.31L136.8-16.31 136.7-14.55Q135.14-14.11 134.04-14.62 132.94-15.14 132.94-16.21L132.94-16.21Q132.94-16.94 133.6-17.77 134.26-18.6 135.33-19.31 136.41-20.02 137.7-20.53 139-21.04 140.36-21.24L140.36-21.24Q143.73-21.24 145.83-19.38 147.93-17.53 147.98-14.5L147.98-14.5 147.88-5.91Q147.88-5.13 147.96-4.17 148.03-3.22 148.18-2.83L148.18-2.83 151.25-2.25 151.25-0.93 149.05-0.15Q148.42 0.1 147.91 0.24 147.39 0.39 147.05 0.39L147.05 0.39Q145.64 0.39 145.3-1.22L145.3-1.22 144.86-3.03 145.54-3.13Q143.88-1.32 142.39-0.46 140.9 0.39 139.39 0.39ZM140.31-2.05L140.31-2.05Q141.63-2.05 142.73-2.64 143.83-3.22 144.81-4.44L144.81-4.44 144.81-9.72 138.7-7.96Q137.53-7.67 137.02-7.01 136.51-6.35 136.51-5.32L136.51-5.32Q136.51-4.1 137.68-3.08 138.85-2.05 140.31-2.05ZM164.48 0.39L164.48 0.39Q161.8 0.39 159.55-0.83 157.3-2.05 155.99-4.39 154.67-6.74 154.67-10.01L154.67-10.01Q154.67-13.53 156.03-16.04 157.4-18.55 159.65-19.92 161.89-21.29 164.43-21.24L164.43-21.24Q168.1-21.19 170.19-18.8 172.29-16.41 172.29-11.72L172.29-11.72 172.29-10.94 157.11-10.94 157.11-12.94 169.56-12.94 169.07-12.45 169.07-13.33Q169.07-16.26 167.75-17.85 166.44-19.43 164.04-19.43L164.04-19.43Q162.63-19.43 161.28-18.58 159.94-17.72 159.09-16.02 158.23-14.31 158.23-11.72L158.23-11.72 158.23-11.23Q158.23-7.08 160.26-4.79 162.28-2.49 165.41-2.49L165.41-2.49Q167.22-2.49 168.56-3.17 169.9-3.86 171.17-5.42L171.17-5.42 172.34-4.39Q170.98-1.95 168.97-0.78 166.97 0.39 164.48 0.39ZM186.55 0L176 0 175.91-1.61 178.93-2.29Q178.98-2.59 179.01-3.2 179.03-3.81 179.05-4.91 179.08-6.01 179.08-7.62L179.08-7.62 179.08-11.47Q179.08-13.18 178.98-14.87 178.88-16.55 178.74-17.33L178.74-17.33 175.61-18.02 175.61-19.48 181.57-21.14 182.16-20.51 181.91-16.36 182.06-16.31Q183.57-19.19 185.08-20.19 186.6-21.19 187.87-21.19L187.87-21.19Q188.94-21.19 189.65-20.65 190.36-20.12 190.36-19.14L190.36-19.14Q190.36-18.12 189.63-17.58 188.89-17.04 187.72-17.04L187.72-17.04Q186.89-17.04 186.13-17.43 185.38-17.82 184.79-18.41L184.79-18.41 185.48-18.07Q184.55-17.43 183.67-16.31 182.79-15.19 182.06-13.53L182.06-13.53 182.11-8.79Q182.16-7.71 182.2-6.45 182.25-5.18 182.3-4.05 182.35-2.93 182.4-2.29L182.4-2.29 186.65-1.71 186.55 0Z" opacity="1" transform="matrix(1,0,0,1,0,0)" fill="#0074d9" class="wordmark-text-0" data-fill-palette-color="primary" id="text-0"></path></svg></g></svg></g></svg></g></svg></g></svg></g></svg></g></svg></g></svg></g><defs></defs></svg><rect width="375.07952880859375" height="163.4647979736328" fill="none" stroke="none" visibility="hidden"></rect></g></svg></g></svg>